Genre:Comedy | Romance
Language:English
IMDb:http://www.imdb.com/title/tt1407061/
Source:Bluray.720p.DTS.x264-CHD
...........................................
General
Complete name : Just Wright 2010 BRRip 720p H264 FEEL-FREE
Format : MPEG-4
Format profile : Base Media
Codec ID : isom
File size : 2.34 GiB
Duration : 1h 40mn
Overall bit rate : 3 324 Kbps
...........................................
Video
ID : 1
Format : MPEG-4 Visual
Format profile : Simple@L1
Format settings, BVOP : No
Format settings, QPel : No
Format settings, GMC : No warppoints
Format settings, Matrix : Default (H.263)
Codec ID : 20
Duration : 1h 40mn
Bit rate mode : Variable
Bit rate : 2 999 Kbps
Width : 1 280 pixels
Height : 720 pixels
Display aspect ratio : 16:9
Frame rate mode : Constant
Frame rate : 30.000 fps
Resolution : 24 bits
Colorimetry : 4:2:0
Scan type : Progressive
Bits/(Pixel*Frame) : 0.108
Stream size : 2.11 GiB (90%)
............................................
Audio
ID : 2
Format : AAC
Format/Info : Advanced Audio Codec
Format version : Version 4
Format profile : LC
Format settings, SBR : No
Codec ID : 40
Duration : 1h 40mn
Bit rate mode : Variable
Bit rate : 320 Kbps
Channel(s) : 6 channels
Channel positions : Front: L C R, Rear: L R, LFE
Sampling rate : 48.0 KHz
Resolution : 16 bits
Stream size : 230 MiB (10%)
...........................................
Plot:
A physical therapist falls for the basketball player she is helping recover from a career-threatening injury
...................................................

Screenshots:
 
http://postimg.com/image/20000/19465.jpg
 
http://postimg.com/image/20000/19466.jpg

..............................................................